<?xml version="1.0" standalone="no"?>
<!DOCTYPE svg PUBLIC "-//W3C//DTD SVG 20010904//EN"
 "http://www.w3.org/TR/2001/REC-SVG-20010904/DTD/svg10.dtd">
<svg version="1.0" xmlns="http://www.w3.org/2000/svg"
 width="1024.000000pt" height="1024.000000pt" viewBox="0 0 1024.000000 1024.000000"
 preserveAspectRatio="xMidYMid meet">

<g transform="translate(0.000000,1024.000000) scale(0.100000,-0.100000)"
fill="#000000" stroke="none">
<path d="M0 5120 l0 -5120 5120 0 5120 0 0 5120 0 5120 -5120 0 -5120 0 0
-5120z m5285 3462 c88 -52 190 -114 227 -138 l67 -44 206 0 c113 0 205 -4 205
-8 0 -24 -30 -32 -120 -33 -52 0 -117 -4 -145 -7 l-50 -7 60 -36 c121 -74 402
-234 476 -271 42 -22 109 -66 150 -100 l74 -60 -180 7 -180 7 -245 147 c-135
82 -278 167 -318 190 -43 25 -70 47 -66 53 4 7 2 8 -4 4 -6 -4 -81 34 -166 84
-85 49 -161 92 -169 96 -8 3 -123 -59 -273 -149 -457 -272 -694 -412 -904
-532 -113 -65 -277 -160 -365 -211 l-160 -92 -5 -274 -5 -273 -50 -3 c-27 -2
-68 -1 -91 3 -37 5 -41 8 -36 30 l4 25 -128 2 -129 2 126 3 126 4 1 174 c0
106 -4 175 -10 175 -5 0 -7 4 -3 9 3 5 -9 11 -27 13 -29 3 -33 7 -36 36 -3 31
-2 32 36 32 l39 0 -2 63 c-4 96 -2 99 81 140 41 20 74 35 74 32 0 -3 -22 -16
-50 -30 -27 -14 -50 -28 -50 -31 0 -3 27 9 60 27 33 17 57 35 54 40 -2 5 33
27 78 49 46 22 74 34 64 25 -33 -26 -12 -17 75 31 46 26 104 57 129 70 l45 23
-63 1 c-48 0 -70 5 -89 20 l-26 20 97 0 c54 0 107 5 118 11 15 8 19 8 14 0
-11 -17 0 -13 59 20 31 18 52 35 48 41 -3 7 -1 8 5 4 14 -8 75 22 67 33 -2 5
1 9 8 8 51 -2 67 4 67 23 0 11 5 20 11 20 7 0 112 61 235 135 122 74 229 135
238 135 8 0 23 11 32 25 9 14 25 25 36 25 10 0 29 10 42 23 13 12 30 23 37 25
19 4 299 171 299 179 0 3 -7 2 -16 -1 -9 -3 -12 -2 -9 5 4 6 14 8 22 5 18 -7
56 12 48 24 -3 5 0 12 6 16 8 5 9 3 4 -6 -5 -8 -3 -11 6 -8 8 3 13 11 11 18
-5 21 38 0 203 -98z m-315 33 c0 -2 -10 -9 -22 -15 -22 -11 -22 -10 -4 4 21
17 26 19 26 11z m-60 -39 c0 -2 -7 -7 -16 -10 -8 -3 -12 -2 -9 4 6 10 25 14
25 6z m-115 -66 c-3 -5 -16 -15 -28 -21 -19 -9 -19 -8 3 10 28 23 34 26 25 11z
m-560 -130 l-250 -5 255 -5 255 -6 -257 -2 c-224 -2 -258 0 -258 13 0 13 34
15 253 13 l252 -3 -250 -5z m150 -106 c-24 -18 -83 -50 -73 -39 10 10 81 54
88 54 3 0 -4 -7 -15 -15z m-120 -70 c-26 -20 -55 -36 -55 -30 0 5 63 46 70 46
3 -1 -4 -8 -15 -16z m-80 -50 c-26 -20 -55 -36 -55 -30 0 5 63 46 70 46 3 -1
-4 -8 -15 -16z m-65 -39 c0 -2 -10 -10 -22 -16 -21 -11 -22 -11 -9 4 13 16 31
23 31 12z m-255 -165 c-3 -5 -12 -10 -18 -10 -7 0 -6 4 3 10 19 12 23 12 15 0z
m1208 -27 c-7 -2 -21 -2 -30 0 -10 3 -4 5 12 5 17 0 24 -2 18 -5z m296 -34
c167 -29 260 -64 416 -157 203 -121 400 -342 497 -558 l33 -74 48 0 c42 0 49
-3 57 -26 14 -35 15 -34 -30 -34 -47 0 -47 -1 -22 -110 14 -56 22 -74 33 -72
10 1 20 -11 26 -33 11 -35 8 -39 -27 -37 -3 0 -4 -34 -4 -76 1 -92 -3 -90 162
-91 61 -1 112 -4 112 -8 -1 -18 -18 -35 -24 -24 -5 8 -13 8 -26 1 -10 -5 -64
-10 -119 -10 l-101 0 0 -52 c-1 -131 -20 -242 -54 -313 -54 -114 -170 -207
-286 -230 -88 -17 -99 -24 -130 -85 -40 -78 -139 -200 -214 -261 -80 -66 -259
-153 -366 -179 -182 -44 -402 -36 -576 21 -97 33 -209 89 -209 107 0 6 -4 14
-9 19 -5 5 -6 2 -1 -6 5 -9 4 -12 -4 -10 -7 3 -11 7 -9 11 4 9 -43 58 -56 58
-6 -1 3 -12 19 -25 17 -14 25 -25 19 -25 -15 0 -132 115 -163 160 -14 19 6 2
43 -38 38 -40 71 -71 74 -68 2 3 -13 24 -34 46 -52 54 -108 140 -135 206 -20
51 -46 66 -34 21 l5 -22 -11 22 c-9 16 -29 26 -85 38 -102 23 -201 75 -257
134 -52 56 -104 151 -113 210 l-7 41 -82 0 c-86 0 -97 3 -88 26 4 10 25 14 78
14 l72 0 7 38 c12 74 7 172 -9 178 -19 8 -20 44 -1 44 13 0 26 48 26 103 0 21
-5 27 -21 27 -28 0 -21 34 8 38 18 3 25 17 44 95 12 51 35 124 51 162 15 39
28 76 28 83 0 6 11 12 25 12 18 0 25 5 25 20 0 11 -6 20 -13 20 -15 0 32 107
63 144 10 11 50 60 89 108 117 141 302 279 464 347 91 37 234 80 307 90 88 13
363 1 489 -20z m1291 -11 c0 -27 -13 -58 -21 -52 -5 3 -5 14 1 25 13 23 6 27
-65 32 -43 3 -41 4 18 5 48 1 67 -2 67 -10z m-2960 -22 c0 -5 -69 -46 -78 -46
-6 1 69 50 76 50 1 0 2 -2 2 -4z m2712 -36 l157 1 201 -118 200 -118 0 -82 0
-82 43 -3 c39 -3 42 -5 42 -33 0 -28 -3 -30 -42 -33 l-43 -3 0 -145 0 -144
146 0 c133 0 145 -1 142 -17 -3 -16 -21 -19 -138 -24 -74 -4 -138 -7 -142 -8
-5 0 -8 -19 -8 -41 l0 -40 -90 0 -90 0 0 273 0 272 -252 155 c-301 186 -329
204 -303 195 11 -4 91 -6 177 -5z m-2802 -15 c0 -2 -10 -9 -22 -15 -22 -11
-22 -10 -4 4 21 17 26 19 26 11z m-496 -353 c-7 -4 -14 -16 -17 -27 -4 -15 -5
-14 -6 8 -1 20 4 27 17 27 11 0 13 -3 6 -8z m619 -122 c-5 -18 -14 -20 -99
-20 -87 0 -94 1 -94 20 0 19 7 20 99 20 94 0 99 -1 94 -20z m-333 -535 c0 -25
0 -25 -95 -25 -87 0 -95 2 -95 19 0 23 18 28 118 30 71 1 72 0 72 -24z m3575
-53 l-3 -37 -58 -3 c-33 -2 -74 0 -91 3 -30 5 -33 9 -33 40 0 39 7 42 116 37
l71 -3 -2 -37z m-3575 -282 l0 -210 -80 0 c-57 0 -80 4 -81 13 0 10 -2 10 -6
0 -13 -34 -20 -3 -22 97 l-1 109 35 7 c25 4 35 11 35 25 0 15 -7 19 -32 19
l-33 0 2 72 c1 40 2 74 2 76 1 1 42 2 91 2 l90 0 0 -210z m3620 46 c0 -18 -6
-25 -22 -28 -23 -3 -23 -6 -26 -156 l-3 -152 26 -10 c27 -10 32 -44 7 -46 -6
-1 -16 -2 -22 -3 -6 0 -10 -35 -10 -81 l0 -80 -90 0 -90 0 0 159 c0 179 -4
171 83 171 33 0 37 2 28 18 -6 11 -6 24 0 33 14 23 11 29 -20 29 -16 0 -43 3
-60 6 l-31 7 0 73 0 73 108 4 c59 1 110 4 115 5 4 1 7 -9 7 -22z m-3674 -316
l54 0 0 -224 c0 -215 -1 -224 -20 -229 -14 -3 -20 -14 -20 -31 0 -19 5 -26 20
-26 19 0 20 -7 20 -100 0 -94 1 -100 21 -100 25 0 59 -17 59 -31 0 -5 -10 -13
-22 -18 -20 -7 -17 -11 35 -42 222 -134 297 -181 302 -189 3 -6 17 -10 31 -10
14 0 32 -7 40 -15 9 -8 26 -15 38 -15 22 0 69 -39 50 -41 -5 -1 -85 0 -178 1
-167 2 -168 2 -216 31 -51 31 -76 39 -44 13 10 -9 3 -6 -17 5 -33 19 -54 21
-255 23 l-219 2 210 6 c259 7 247 11 -30 10 -115 0 -207 1 -204 4 2 3 103 6
222 7 188 1 216 3 206 16 -7 7 -18 12 -26 9 -9 -4 -11 -1 -7 6 5 8 2 9 -10 5
-9 -4 -15 -3 -11 2 3 6 -25 28 -61 49 l-67 40 0 166 c0 131 -3 166 -13 166 -7
0 -11 -6 -8 -13 2 -7 0 -24 -5 -38 -9 -21 -10 -19 -10 19 l-1 42 -55 0 c-52 0
-54 1 -46 23 7 18 16 22 52 23 l44 0 3 47 3 47 -155 0 c-149 0 -156 1 -156 20
0 19 7 20 155 20 l155 0 0 25 c0 14 5 25 11 25 6 0 9 -12 7 -27 l-3 -28 -157
-3 c-97 -1 -158 -6 -158 -13 0 -6 53 -9 143 -9 78 1 150 -2 160 -5 12 -5 17
-19 18 -49 2 -40 2 -39 8 11 3 28 6 86 6 127 l0 76 45 0 c41 0 45 2 46 25 2
24 0 25 -62 25 l-64 0 0 69 c0 68 1 70 28 74 15 2 33 2 40 0 8 -1 38 -3 68 -3z
m958 -317 c9 -18 14 -33 12 -33 -6 0 -36 55 -36 66 0 11 5 3 24 -33z m-216 5
c-4 -10 -43 -13 -149 -14 l-144 0 145 6 145 6 -140 5 -140 5 143 2 c111 2 143
-1 140 -10z m2882 -98 l0 -110 -30 0 c-25 0 -30 -4 -30 -24 0 -15 -7 -26 -17
-29 -10 -3 3 -5 29 -6 l47 -1 3 -47 c4 -60 7 -61 199 -62 l146 -1 -5 -30 c-4
-28 -7 -29 -51 -29 -25 1 -101 1 -168 0 l-122 -1 -3 -56 -3 -56 -101 -61
c-271 -166 -652 -403 -673 -419 -13 -10 -19 -18 -13 -18 6 0 14 5 17 10 4 6
83 10 206 10 170 0 199 -2 199 -15 0 -13 -27 -15 -192 -13 l-193 2 185 6 185
6 -187 2 c-120 1 -188 -2 -188 -8 0 -5 -16 -10 -36 -10 -27 0 -71 -22 -192
-97 -164 -101 -258 -153 -279 -153 -7 0 -13 -7 -13 -15 0 -8 -10 -21 -22 -29
-129 -80 -520 -317 -540 -327 -24 -10 -37 -6 -145 57 -65 37 -170 102 -234
143 -63 42 -208 132 -322 201 -114 69 -207 128 -207 132 0 4 24 -7 53 -26 28
-18 156 -96 282 -173 127 -77 252 -154 278 -172 27 -18 50 -31 52 -29 6 6 -94
70 -400 257 -592 361 -727 441 -748 440 -21 0 -21 -1 3 -11 49 -21 89 -42 112
-60 16 -12 -162 69 -189 86 -1 1 91 -1 205 -2 l206 -4 100 -63 c56 -34 166
-102 246 -150 501 -303 629 -379 664 -397 39 -20 40 -20 55 -1 9 10 41 33 71
51 30 18 62 37 70 42 93 58 190 112 190 106 0 -2 -70 -46 -155 -96 -142 -84
-180 -111 -158 -110 20 2 378 228 378 239 0 7 19 24 43 38 23 14 42 23 42 20
0 -3 -18 -16 -40 -28 -22 -12 -38 -24 -35 -27 4 -5 177 96 400 234 180 112
190 119 145 99 l-35 -16 25 20 c14 11 32 19 40 19 36 -3 49 4 58 30 7 19 28
39 63 60 30 17 74 43 99 57 25 15 36 19 25 10 -11 -9 -55 -37 -98 -62 -42 -25
-75 -48 -73 -51 3 -2 56 27 118 65 62 39 141 87 176 108 67 41 82 56 30 29
-50 -25 -20 -1 37 31 42 23 46 23 25 5 -20 -18 -15 -16 28 7 28 15 62 36 75
46 12 10 0 6 -28 -9 -63 -34 -47 -16 19 22 27 15 46 22 41 15 -5 -9 -4 -12 4
-10 7 3 11 9 10 14 -2 6 10 12 27 15 l29 5 3 103 3 102 -36 0 c-35 0 -36 1
-33 32 2 27 9 34 36 42 l32 9 0 93 c0 125 18 122 23 -3 l3 -98 2 103 2 102 75
0 75 0 0 -110z m-818 -5 c-3 -67 -28 -191 -58 -292 -19 -65 -31 -87 -52 -100
-15 -9 -33 -24 -40 -32 -11 -14 -6 -17 40 -26 45 -8 52 -13 50 -30 -5 -28 -4
-27 -72 -28 -56 0 -62 -2 -75 -27 -18 -35 -120 -128 -210 -192 -166 -118 -336
-179 -570 -203 -126 -13 -371 31 -510 92 -98 44 -308 179 -231 150 10 -4 15
-3 11 4 -4 5 -14 7 -24 4 -12 -3 -42 20 -99 77 -45 44 -82 85 -82 90 0 4 -10
8 -21 8 -12 0 -32 11 -45 25 l-23 25 29 0 c18 0 30 5 30 13 0 23 -23 37 -60
37 -37 0 -60 14 -60 37 0 9 8 11 25 7 31 -8 31 -5 1 70 -25 65 -44 163 -26
136 5 -8 10 -25 10 -37 0 -12 5 -25 10 -28 6 -3 10 -17 10 -31 0 -29 26 -84
40 -84 14 0 13 1 -16 97 -14 46 -23 87 -20 90 3 3 25 8 50 10 l46 6 26 -59
c58 -134 68 -154 73 -155 3 -1 35 -6 70 -13 68 -12 92 -32 44 -38 -17 -2 -33
-13 -43 -30 -14 -27 -14 -29 30 -74 121 -124 293 -225 451 -265 120 -29 347
-38 428 -15 32 9 67 14 77 10 16 -5 16 -4 4 5 -13 9 -13 11 0 11 48 0 258 128
359 217 l36 32 -29 1 -29 0 23 25 c13 14 31 25 41 25 10 0 21 5 24 10 3 6 22
10 41 10 22 0 33 4 29 11 -4 5 5 27 19 48 17 24 47 108 80 224 30 102 56 190
60 195 3 5 34 9 68 8 l63 -1 -3 -50z m306 -117 c-3 -9 -38 -14 -116 -16 -95
-2 -112 0 -112 13 0 13 18 15 116 15 88 0 115 -3 112 -12z m-2361 -14 c-3 -3
-12 -4 -19 -1 -8 3 -5 6 6 6 11 1 17 -2 13 -5z m-868 -217 l-2 -79 41 -24 c23
-14 42 -27 42 -30 0 -6 -5 -3 -62 33 l-38 23 1 108 c1 82 3 100 10 77 5 -16 9
-65 8 -108z m131 -163 c0 -2 -9 0 -20 6 -11 6 -20 13 -20 16 0 2 9 0 20 -6 11
-6 20 -13 20 -16z m3105 -30 c-24 -18 -83 -50 -73 -39 10 10 81 54 88 54 3 0
-4 -7 -15 -15z m-2885 -110 c0 -2 -9 0 -20 6 -11 6 -20 13 -20 16 0 2 9 0 20
-6 11 -6 20 -13 20 -16z m2455 -160 c-24 -18 -83 -50 -73 -39 10 10 81 54 88
54 3 0 -4 -7 -15 -15z m-1987 -121 c39 -25 72 -47 72 -50 0 -3 -10 1 -22 9
-13 8 -67 41 -120 73 -54 31 -98 60 -98 62 0 6 62 -30 168 -94z m1902 73 c0
-4 -153 -98 -185 -114 -33 -17 16 18 92 64 91 56 93 57 93 50z m-220 -136
c-28 -21 -109 -67 -99 -56 9 10 113 75 119 76 3 0 -6 -9 -20 -20z m-1575 0 c3
-5 2 -10 -4 -10 -5 0 -13 5 -16 10 -3 6 -2 10 4 10 5 0 13 -4 16 -10z m1365
-125 c0 -2 -10 -9 -22 -15 -22 -11 -22 -10 -4 4 21 17 26 19 26 11z m-1703
-810 c65 -22 127 -74 155 -129 27 -51 37 -211 19 -292 -15 -66 -81 -144 -142
-168 -50 -20 -218 -37 -344 -35 l-90 2 -3 -137 -3 -136 -99 0 -100 0 0 461 0
461 278 -4 c236 -4 285 -7 329 -23z m555 -297 c3 -365 6 -380 76 -414 50 -24
213 -25 257 -2 79 42 84 71 85 441 l0 297 101 0 100 0 -3 -352 -3 -353 -28
-57 c-34 -70 -77 -109 -154 -139 -53 -21 -73 -24 -223 -24 -147 0 -171 3 -220
22 -80 32 -124 74 -162 151 l-33 67 -3 342 -3 343 104 0 105 0 4 -322z m1253
16 l210 -302 3 304 2 304 105 0 105 0 -2 -457 -3 -458 -112 -3 -111 -3 -211
302 -211 301 0 -301 0 -302 -102 3 -103 3 -2 458 -3 458 112 -3 113 -3 210
-301z m832 109 l-6 -198 112 120 c61 66 146 155 187 198 l75 78 124 -3 123 -3
-186 -197 -186 -197 180 -252 c99 -139 180 -256 180 -261 0 -5 -53 -7 -117 -6
l-117 3 -123 170 c-69 94 -128 177 -133 185 -7 12 -19 5 -61 -37 l-52 -51 -1
-134 -1 -133 -102 0 -102 0 -5 451 c-3 248 -2 454 1 458 3 3 54 6 111 6 l105
0 -6 -197z m-3945 -1083 l-3 -180 205 0 206 0 0 180 0 180 105 0 105 0 0 -455
0 -455 -105 0 -105 0 0 185 0 185 -205 0 -205 0 0 -185 0 -185 -100 0 -100 0
-2 455 -3 455 105 0 105 0 -3 -180z m1510 -260 c87 -239 161 -443 164 -453 5
-16 -3 -17 -103 -15 l-108 3 -31 90 -31 90 -188 0 -187 0 -33 -90 -32 -90
-107 -3 c-58 -1 -106 -1 -106 2 0 3 50 141 111 308 61 167 131 359 156 428 25
69 49 135 54 148 9 22 11 23 146 20 l137 -3 158 -435z m1008 362 l0 -79 -206
-259 c-114 -142 -220 -274 -237 -291 l-31 -33 247 0 247 0 0 -85 0 -85 -370 0
-370 0 0 78 1 77 140 170 c76 94 184 225 239 293 l100 122 -230 0 -230 0 0 85
0 85 350 0 350 0 0 -78z m881 -380 l166 -453 -110 3 -110 3 -31 90 -31 90
-185 0 -184 0 -34 -92 -34 -93 -108 0 -108 0 44 118 c24 64 99 269 166 455
l123 337 135 -2 135 -3 166 -453z m841 447 c95 -20 152 -61 191 -134 43 -83
31 -290 -21 -350 -28 -33 -85 -73 -114 -80 -16 -4 -28 -9 -28 -11 0 -3 47 -77
105 -164 l104 -160 -117 0 -117 0 -97 150 -97 150 -76 0 -75 0 0 -150 0 -150
-105 0 -105 0 0 455 0 455 250 0 c146 0 271 -5 302 -11z m891 1 c95 -14 159
-44 210 -99 66 -71 89 -139 94 -291 11 -261 -37 -388 -170 -457 -82 -41 -176
-53 -423 -53 l-224 0 0 455 0 455 223 0 c122 0 253 -5 290 -10z m-1460 -1149
c21 -5 40 -11 43 -13 2 -2 -1 -21 -7 -42 -8 -30 -14 -36 -27 -30 -27 11 -128
17 -167 10 -26 -5 -36 -13 -41 -32 -10 -39 12 -53 99 -64 91 -11 131 -30 152
-70 32 -61 9 -147 -47 -176 -43 -23 -167 -30 -242 -14 l-58 12 7 36 c4 21 8
38 10 40 2 2 20 -1 42 -7 57 -16 155 -14 181 5 24 17 29 56 10 72 -7 5 -51 15
-98 21 -89 12 -125 29 -147 72 -31 60 -1 148 60 174 36 16 171 19 230 6z
m-2073 -176 l0 -175 100 0 100 0 0 -40 0 -40 -150 0 -150 0 0 215 0 215 50 0
50 0 0 -175z m787 50 c24 -66 60 -162 78 -212 l34 -93 -53 0 -53 0 -12 40 -12
40 -93 0 -93 0 -12 -40 -12 -40 -54 0 -54 0 13 33 c8 17 44 114 81 215 l68
183 64 -3 65 -3 45 -120z m678 111 c49 -21 69 -56 62 -114 -3 -29 -12 -52 -24
-61 -17 -14 -17 -15 9 -42 52 -51 30 -157 -37 -185 -24 -10 -76 -14 -175 -14
l-140 0 0 215 0 215 135 0 c94 0 146 -4 170 -14z"/>
<path d="M3438 7709 c-21 -11 -38 -22 -38 -24 0 -3 18 4 40 15 22 11 40 23 40
25 0 7 0 7 -42 -16z"/>
<path d="M3244 7602 c-14 -9 -19 -142 -5 -142 5 0 11 34 13 75 2 41 3 75 3 75
0 0 -5 -4 -11 -8z"/>
<path d="M3231 7290 c1 -28 4 -48 8 -44 9 8 8 94 -1 94 -4 0 -7 -23 -7 -50z"/>
<path d="M3230 7088 c0 -78 2 -139 4 -137 9 9 14 279 5 279 -5 0 -9 -61 -9
-142z"/>
<path d="M4911 7775 c-245 -43 -453 -155 -627 -337 l-79 -83 45 -3 c59 -4 69
-16 41 -46 -19 -20 -35 -26 -79 -28 l-56 -3 -48 -90 c-47 -89 -101 -235 -114
-307 -5 -34 -9 -37 -43 -41 l-36 -4 39 -1 c30 -2 37 -5 32 -17 -21 -57 -38
-219 -33 -324 10 -239 85 -332 302 -375 72 -15 84 -20 118 -58 20 -22 40 -53
43 -67 16 -81 134 -226 241 -297 135 -89 335 -139 518 -128 50 3 100 6 112 7
12 1 19 5 17 9 -3 5 7 6 23 3 22 -5 25 -4 13 5 -12 9 -10 10 12 6 55 -12 195
63 296 157 69 66 126 147 186 263 l47 91 63 5 c65 6 152 46 221 103 l30 25
-48 0 -48 0 20 29 c11 16 33 31 48 34 33 6 44 0 23 -13 -13 -8 -13 -10 1 -10
23 0 38 62 46 189 l6 111 -26 0 c-23 0 -27 4 -27 30 0 25 4 30 25 30 23 0 25
4 25 43 0 105 -49 320 -97 428 l-26 59 -129 0 c-126 0 -128 0 -118 20 10 18
21 20 110 20 73 0 100 3 100 13 0 18 -93 155 -138 205 -37 39 -44 42 -93 43
-49 1 -51 2 -21 9 70 16 48 25 -61 24 l-112 -1 105 6 105 6 -84 63 c-47 35
-103 73 -124 84 -71 36 -215 88 -289 104 -103 23 -350 27 -457 9z m847 -302
c-21 -2 -55 -2 -75 0 -21 2 -4 4 37 4 41 0 58 -2 38 -4z m-1091 -614 c88 -42
139 -163 114 -272 -23 -103 -73 -150 -176 -167 -58 -9 -149 2 -160 20 -3 5 9
5 27 0 17 -6 34 -7 37 -5 2 3 -1 5 -7 5 -20 0 -82 62 -102 101 -31 60 -35 134
-13 202 11 31 17 57 13 57 -8 0 -50 -82 -50 -98 0 -6 -4 -13 -9 -17 -6 -3 -3
15 6 41 18 52 70 110 123 136 50 25 143 23 197 -3z m1101 -13 c55 -37 85 -101
90 -188 10 -159 -65 -238 -225 -238 -144 0 -222 78 -223 221 0 50 6 77 25 115
47 95 104 126 221 121 59 -2 78 -7 112 -31z m-1513 -248 c6 -4 2 -8 -7 -8 -10
0 -18 7 -18 17 0 9 3 12 8 7 4 -5 12 -12 17 -16z m109 -58 c5 -17 4 -20 -2
-10 -5 8 -13 26 -16 40 -5 17 -4 20 2 10 5 -8 13 -26 16 -40z m42 -62 l29 -33
-32 29 c-31 28 -38 36 -30 36 2 0 16 -15 33 -32z m1438 -390 c-27 -30 -46 -77
-38 -90 4 -6 2 -8 -3 -5 -13 8 -26 -20 -16 -35 3 -6 1 -8 -5 -5 -6 4 -25 -19
-45 -55 -72 -128 -231 -262 -348 -292 -13 -3 -5 3 18 14 160 73 283 202 381
397 36 70 50 88 71 92 3 1 -4 -9 -15 -21z"/>
<path d="M5479 6803 c-45 -49 -62 -104 -57 -182 3 -58 9 -77 33 -112 17 -24
45 -49 64 -56 l34 -14 -41 46 c-67 76 -76 200 -22 305 24 47 22 49 -11 13z"/>
<path d="M4005 7300 c3 -5 8 -10 11 -10 2 0 4 5 4 10 0 6 -5 10 -11 10 -5 0
-7 -4 -4 -10z"/>
<path d="M5880 7190 c0 -6 43 -10 110 -10 67 0 110 4 110 10 0 6 -43 10 -110
10 -67 0 -110 -4 -110 -10z"/>
<path d="M6257 6573 c-2 -4 -5 -37 -6 -73 -1 -36 -6 -93 -10 -128 -4 -35 -4
-65 0 -68 15 -9 28 64 30 164 1 96 -2 125 -14 105z"/>
<path d="M3650 6381 c0 -13 126 -15 134 -3 2 4 -27 9 -65 11 -44 1 -69 -2 -69
-8z"/>
<path d="M6809 7358 c-1 -57 -2 -169 -2 -250 -1 -82 1 -148 6 -148 4 0 7 113
7 250 0 138 -2 250 -5 250 -3 0 -5 -46 -6 -102z"/>
<path d="M7040 7040 c-10 -7 17 -10 92 -10 59 0 109 3 111 8 8 11 -186 14
-203 2z"/>
<path d="M3550 7330 c0 -6 35 -10 85 -10 50 0 85 4 85 10 0 6 -35 10 -85 10
-50 0 -85 -4 -85 -10z"/>
<path d="M6812 6745 c0 -16 2 -22 5 -12 2 9 2 23 0 30 -3 6 -5 -1 -5 -18z"/>
<path d="M3232 6625 c0 -16 2 -22 5 -12 2 9 2 23 0 30 -3 6 -5 -1 -5 -18z"/>
<path d="M3230 6370 c0 -51 3 -90 7 -86 7 7 6 167 -2 175 -3 2 -5 -38 -5 -89z"/>
<path d="M6808 6430 c-1 -28 0 -50 5 -50 4 0 7 23 7 50 0 65 -7 65 -12 0z"/>
<path d="M6814 6110 c0 -85 2 -120 3 -77 2 42 2 112 0 155 -1 42 -3 7 -3 -78z"/>
<path d="M3233 6125 c0 -27 2 -38 4 -22 2 15 2 37 0 50 -2 12 -4 0 -4 -28z"/>
<path d="M3223 5733 c4 -3 1 -13 -6 -22 -11 -14 -10 -14 6 -2 20 15 22 31 5
31 -6 0 -8 -3 -5 -7z"/>
<path d="M3120 5710 c0 -5 15 -10 34 -10 19 0 38 5 41 10 4 6 -10 10 -34 10
-23 0 -41 -4 -41 -10z"/>
<path d="M6811 5560 c-8 -101 -8 -131 1 -122 5 5 7 44 5 88 -2 55 -4 65 -6 34z"/>
<path d="M7032 5478 c3 -9 42 -14 136 -16 113 -2 132 0 132 13 0 13 -21 15
-136 15 -104 0 -135 -3 -132 -12z"/>
<path d="M5995 5609 c-4 -6 -5 -12 -2 -15 2 -3 7 2 10 11 7 17 1 20 -8 4z"/>
<path d="M5946 5489 c-10 -17 -16 -39 -13 -50 3 -12 0 -19 -9 -19 -8 0 -14 -5
-14 -11 0 -37 52 30 65 84 9 36 -6 34 -29 -4z"/>
<path d="M5893 5383 c4 -3 1 -13 -6 -22 -11 -14 -10 -14 6 -2 20 15 22 31 5
31 -6 0 -8 -3 -5 -7z"/>
<path d="M4254 5257 c19 -31 98 -113 131 -137 17 -13 -72 89 -129 145 -19 20
-19 20 -2 -8z"/>
<path d="M5623 5135 c-29 -19 -55 -35 -58 -35 -3 0 -23 -11 -43 -25 -20 -14
-59 -32 -87 -42 -27 -9 -44 -18 -37 -21 18 -6 208 91 252 128 47 40 36 38 -27
-5z"/>
<path d="M6293 5653 c32 -2 81 -2 110 0 29 2 3 3 -58 3 -60 0 -84 -1 -52 -3z"/>
<path d="M3410 3545 l0 -145 150 0 c165 0 197 8 218 55 17 37 15 150 -3 184
-21 42 -61 51 -221 51 l-144 0 0 -145z"/>
<path d="M3666 2412 c-32 -92 -60 -175 -63 -184 -5 -17 5 -18 121 -18 69 0
126 2 126 3 0 5 -121 361 -123 364 -1 1 -29 -73 -61 -165z"/>
<path d="M5598 2553 c-3 -16 -30 -99 -61 -185 l-56 -158 125 0 c68 0 124 3
124 8 1 15 -115 361 -121 362 -4 0 -9 -12 -11 -27z"/>
<path d="M6410 2465 l0 -135 130 0 c195 0 220 16 220 141 0 113 -28 129 -220
129 l-130 0 0 -135z"/>
<path d="M7340 2314 l0 -286 128 4 c189 6 236 38 263 176 14 76 7 233 -14 283
-33 80 -107 109 -277 109 l-100 0 0 -286z"/>
<path d="M4753 1425 l-30 -85 63 0 64 0 -30 82 c-16 44 -31 83 -33 85 -3 2
-18 -35 -34 -82z"/>
<path d="M5360 1485 l0 -45 78 0 c82 0 102 9 102 45 0 36 -20 45 -102 45 l-78
0 0 -45z"/>
<path d="M5360 1315 l0 -55 83 0 c93 0 107 7 107 57 0 43 -21 53 -114 53 l-76
0 0 -55z"/>
</g>
</svg>
